#define 32eb3d525a0b4c5fd8b8b8ba208286e8Wrp7UV2HAIhg85Bl_width 32
#define 32eb3d525a0b4c5fd8b8b8ba208286e8Wrp7UV2HAIhg85Bl_height 32
static char 32eb3d525a0b4c5fd8b8b8ba208286e8Wrp7UV2HAIhg85Bl_bits[] = {
  0x00, 0x00, 0x00, 0x00, 0x00, 0x00, 0x00, 0x00, 0x00, 0x00, 0x00, 0x00, 
  0x00, 0xC0, 0x03, 0x00, 0x00, 0xE0, 0x07, 0x00, 0x00, 0xE0, 0x07, 0x00, 
  0x00, 0xF8, 0x1F, 0x00, 0x00, 0x1C, 0x38, 0x00, 0x00, 0x0E, 0x70, 0x00, 
  0x00, 0x07, 0xE0, 0x00, 0x00, 0x03, 0xC0, 0x00, 0x80, 0x01, 0x80, 0x01, 
  0x80, 0x01, 0x80, 0x01, 0x80, 0x01, 0x80, 0x01, 0x80, 0x01, 0x80, 0x01, 
  0x80, 0x01, 0x80, 0x01, 0x80, 0x01, 0x80, 0x01, 0x80, 0x01, 0x80, 0x01, 
  0x80, 0x01, 0x80, 0x01, 0x80, 0x01, 0x80, 0x01, 0xC0, 0x01, 0x80, 0x03, 
  0x60, 0x00, 0x00, 0x06, 0x70, 0x00, 0x00, 0x0E, 0x30, 0x00, 0x00, 0x0C, 
  0xF0, 0xFF, 0xFF, 0x0F, 0xF0, 0xFF, 0xFF, 0x0F, 0x00, 0x70, 0x0E, 0x00, 
  0x00, 0xE0, 0x07, 0x00, 0x00, 0xC0, 0x03, 0x00, 0x00, 0x00, 0x00, 0x00, 
  0x00, 0x00, 0x00, 0x00, 0x00, 0x00, 0x00, 0x00, };
